<mxfile host="app.diagrams.net" modified="2023-04-24T12:58:39.227Z" agent="Mozilla/5.0 (Windows NT 10.0; Win64; x64) AppleWebKit/537.36 (KHTML, like Gecko) Chrome/112.0.0.0 Safari/537.36" etag="IGaMbvjkKEi_znnNt-Yt" version="21.2.1" type="github">
  <diagram name="Page-1" id="snA1IeUbaR2v86akBYNf">
    <mxGraphModel dx="1050" dy="549" grid="1" gridSize="10" guides="1" tooltips="1" connect="1" arrows="1" fold="1" page="1" pageScale="1" pageWidth="850" pageHeight="1100" math="1" shadow="0">
      <root>
        <mxCell id="0" />
        <mxCell id="1" parent="0" />
        <mxCell id="1E-2f_6bZwao8XNekgTV-1" value="$$ S_1 $$" style="ellipse;whiteSpace=wrap;html=1;aspect=fixed;movable=1;resizable=1;rotatable=1;deletable=1;editable=1;locked=0;connectable=1;fontSize=20;" vertex="1" parent="1">
          <mxGeometry x="42" y="239" width="80" height="80" as="geometry" />
        </mxCell>
        <mxCell id="1E-2f_6bZwao8XNekgTV-2" value="$$ S_2 $$" style="ellipse;whiteSpace=wrap;html=1;aspect=fixed;fontSize=22;" vertex="1" parent="1">
          <mxGeometry x="262" y="239" width="80" height="80" as="geometry" />
        </mxCell>
        <mxCell id="1E-2f_6bZwao8XNekgTV-3" value="&lt;font style=&quot;font-size: 22px;&quot;&gt;$$ S_3 $$&lt;/font&gt;" style="ellipse;whiteSpace=wrap;html=1;aspect=fixed;" vertex="1" parent="1">
          <mxGeometry x="482" y="239" width="80" height="80" as="geometry" />
        </mxCell>
        <mxCell id="1E-2f_6bZwao8XNekgTV-4" value="" style="endArrow=classic;html=1;rounded=0;" edge="1" parent="1">
          <mxGeometry width="50" height="50" relative="1" as="geometry">
            <mxPoint x="132" y="279" as="sourcePoint" />
            <mxPoint x="252" y="278.5" as="targetPoint" />
          </mxGeometry>
        </mxCell>
        <mxCell id="1E-2f_6bZwao8XNekgTV-5" value="" style="endArrow=classic;html=1;rounded=0;" edge="1" parent="1">
          <mxGeometry width="50" height="50" relative="1" as="geometry">
            <mxPoint x="352" y="279" as="sourcePoint" />
            <mxPoint x="472" y="278.5" as="targetPoint" />
          </mxGeometry>
        </mxCell>
        <mxCell id="1E-2f_6bZwao8XNekgTV-6" value="$$ e_1 $$" style="ellipse;whiteSpace=wrap;html=1;aspect=fixed;strokeColor=#36393d;fillColor=#cdeb8b;fontSize=22;" vertex="1" parent="1">
          <mxGeometry x="42" y="80" width="80" height="80" as="geometry" />
        </mxCell>
        <mxCell id="1E-2f_6bZwao8XNekgTV-7" value="$$ e_3 $$" style="ellipse;whiteSpace=wrap;html=1;aspect=fixed;fillColor=#cdeb8b;strokeColor=#36393d;fontSize=22;" vertex="1" parent="1">
          <mxGeometry x="482" y="80" width="80" height="80" as="geometry" />
        </mxCell>
        <mxCell id="1E-2f_6bZwao8XNekgTV-8" value="$$ e_2 $$" style="ellipse;whiteSpace=wrap;html=1;aspect=fixed;fillColor=#cdeb8b;strokeColor=#36393d;fontSize=22;" vertex="1" parent="1">
          <mxGeometry x="262" y="80" width="80" height="80" as="geometry" />
        </mxCell>
        <mxCell id="1E-2f_6bZwao8XNekgTV-9" value="" style="endArrow=classic;html=1;rounded=0;fillColor=#cdeb8b;strokeColor=#B9E0A5;strokeWidth=3;" edge="1" parent="1">
          <mxGeometry width="50" height="50" relative="1" as="geometry">
            <mxPoint x="82" y="230" as="sourcePoint" />
            <mxPoint x="82" y="170" as="targetPoint" />
          </mxGeometry>
        </mxCell>
        <mxCell id="1E-2f_6bZwao8XNekgTV-10" value="" style="endArrow=classic;html=1;rounded=0;fillColor=#cdeb8b;strokeColor=#B9E0A5;strokeWidth=3;" edge="1" parent="1">
          <mxGeometry width="50" height="50" relative="1" as="geometry">
            <mxPoint x="522" y="229" as="sourcePoint" />
            <mxPoint x="522" y="169" as="targetPoint" />
          </mxGeometry>
        </mxCell>
        <mxCell id="1E-2f_6bZwao8XNekgTV-11" value="" style="endArrow=classic;html=1;rounded=0;fillColor=#cdeb8b;strokeColor=#B9E0A5;strokeWidth=3;" edge="1" parent="1">
          <mxGeometry width="50" height="50" relative="1" as="geometry">
            <mxPoint x="301" y="230" as="sourcePoint" />
            <mxPoint x="301" y="170" as="targetPoint" />
          </mxGeometry>
        </mxCell>
        <mxCell id="1E-2f_6bZwao8XNekgTV-12" value="" style="endArrow=none;html=1;rounded=0;" edge="1" parent="1">
          <mxGeometry width="50" height="50" relative="1" as="geometry">
            <mxPoint x="600" y="320" as="sourcePoint" />
            <mxPoint x="600" y="80" as="targetPoint" />
          </mxGeometry>
        </mxCell>
        <mxCell id="1E-2f_6bZwao8XNekgTV-13" value="&lt;b style=&quot;font-size: 22px;&quot;&gt;&lt;font style=&quot;font-size: 22px;&quot;&gt;Hidden&lt;/font&gt;&lt;/b&gt;" style="text;strokeColor=none;align=center;fillColor=none;html=1;verticalAlign=middle;whiteSpace=wrap;rounded=0;fontSize=22;" vertex="1" parent="1">
          <mxGeometry x="645" y="264" width="60" height="30" as="geometry" />
        </mxCell>
        <mxCell id="1E-2f_6bZwao8XNekgTV-14" value="&lt;b style=&quot;font-size: 22px;&quot;&gt;Observed&lt;/b&gt;" style="text;html=1;align=center;verticalAlign=middle;resizable=0;points=[];autosize=1;strokeColor=none;fillColor=none;fontSize=22;fontColor=#CDEB8B;labelBackgroundColor=default;" vertex="1" parent="1">
          <mxGeometry x="610" y="100" width="130" height="40" as="geometry" />
        </mxCell>
        <mxCell id="1E-2f_6bZwao8XNekgTV-18" value="(States)" style="text;html=1;align=center;verticalAlign=middle;resizable=0;points=[];autosize=1;strokeColor=none;fillColor=none;fontSize=16;" vertex="1" parent="1">
          <mxGeometry x="635" y="289" width="80" height="30" as="geometry" />
        </mxCell>
        <mxCell id="1E-2f_6bZwao8XNekgTV-19" value="(Emissions)" style="text;html=1;align=center;verticalAlign=middle;resizable=0;points=[];autosize=1;strokeColor=none;fillColor=none;fontSize=16;" vertex="1" parent="1">
          <mxGeometry x="618" y="139" width="110" height="30" as="geometry" />
        </mxCell>
      </root>
    </mxGraphModel>
  </diagram>
</mxfile>
